<?xml version="1.0" encoding="UTF-8" standalone="no"?>
<!-- Created with Inkscape (http://www.inkscape.org/) -->

<svg
   xmlns:dc="http://purl.org/dc/elements/1.1/"
   xmlns:cc="http://creativecommons.org/ns#"
   xmlns:rdf="http://www.w3.org/1999/02/22-rdf-syntax-ns#"
   xmlns:svg="http://www.w3.org/2000/svg"
   xmlns="http://www.w3.org/2000/svg"
   xmlns:sodipodi="http://sodipodi.sourceforge.net/DTD/sodipodi-0.dtd"
   xmlns:inkscape="http://www.inkscape.org/namespaces/inkscape"
   width="210mm"
   height="297mm"
   viewBox="0 0 210 297"
   version="1.1"
   id="svg8"
   sodipodi:docname="icon.svg"
   inkscape:version="0.92.3 (2405546, 2018-03-11)">
  <defs
     id="defs2" />
  <sodipodi:namedview
     id="base"
     pagecolor="#ffffff"
     bordercolor="#666666"
     borderopacity="1.0"
     inkscape:pageopacity="0.0"
     inkscape:pageshadow="2"
     inkscape:zoom="0.7"
     inkscape:cx="274.53978"
     inkscape:cy="578.05957"
     inkscape:document-units="mm"
     inkscape:current-layer="layer1"
     showgrid="false"
     inkscape:window-width="1366"
     inkscape:window-height="680"
     inkscape:window-x="0"
     inkscape:window-y="24"
     inkscape:window-maximized="1" />
  <metadata
     id="metadata5">
    <rdf:RDF>
      <cc:Work
         rdf:about="">
        <dc:format>image/svg+xml</dc:format>
        <dc:type
           rdf:resource="http://purl.org/dc/dcmitype/StillImage" />
        <dc:title></dc:title>
      </cc:Work>
    </rdf:RDF>
  </metadata>
  <g
     inkscape:label="Layer 1"
     inkscape:groupmode="layer"
     id="layer1">
    <circle
       style="opacity:1;fill:#8c06ad;fill-opacity:1;stroke:none;stroke-width:7.86291981;stroke-miterlimit:4;stroke-dasharray:none;stroke-opacity:1"
       id="path815"
       cx="102.64183"
       cy="139.97409"
       r="55.605095" />
    <path
       style="opacity:1;fill:#ffffff;fill-opacity:1;stroke:none;stroke-width:25.14717484;stroke-miterlimit:4;stroke-dasharray:none;stroke-opacity:1"
       d="M 387.9375 351.19922 A 177.8361 177.8361 0 0 0 387.89844 351.20117 L 387.89844 385.54688 A 143.4909 143.4909 0 0 1 387.9375 385.54492 A 143.4909 143.4909 0 0 1 531.42773 529.03516 A 143.4909 143.4909 0 0 1 387.9375 672.52734 A 143.4909 143.4909 0 0 1 387.89844 672.52539 L 387.89844 706.86914 A 177.8361 177.8361 0 0 0 387.9375 706.87109 A 177.8361 177.8361 0 0 0 565.77344 529.03516 A 177.8361 177.8361 0 0 0 387.9375 351.19922 z "
       transform="scale(0.26458333)"
       id="circle817" />
  </g>
</svg>
