<?xml version="1.0" encoding="UTF-8" standalone="no"?>
<!-- Created with Inkscape (http://www.inkscape.org/) -->

<svg
   xmlns:dc="http://purl.org/dc/elements/1.1/"
   xmlns:cc="http://creativecommons.org/ns#"
   xmlns:rdf="http://www.w3.org/1999/02/22-rdf-syntax-ns#"
   xmlns:svg="http://www.w3.org/2000/svg"
   xmlns="http://www.w3.org/2000/svg"
   xmlns:sodipodi="http://sodipodi.sourceforge.net/DTD/sodipodi-0.dtd"
   xmlns:inkscape="http://www.inkscape.org/namespaces/inkscape"
   width="210mm"
   height="297mm"
   viewBox="0 0 210 297"
   version="1.1"
   id="svg1081"
   inkscape:version="0.92.3 (2405546, 2018-03-11)"
   sodipodi:docname="saturns_ring.svg">
  <defs
     id="defs1075" />
  <sodipodi:namedview
     id="base"
     pagecolor="#ffffff"
     bordercolor="#666666"
     borderopacity="1.0"
     inkscape:pageopacity="0.0"
     inkscape:pageshadow="2"
     inkscape:zoom="0.35"
     inkscape:cx="-48.571429"
     inkscape:cy="560"
     inkscape:document-units="mm"
     inkscape:current-layer="layer1"
     showgrid="false"
     inkscape:window-width="1366"
     inkscape:window-height="680"
     inkscape:window-x="0"
     inkscape:window-y="24"
     inkscape:window-maximized="1" />
  <metadata
     id="metadata1078">
    <rdf:RDF>
      <cc:Work
         rdf:about="">
        <dc:format>image/svg+xml</dc:format>
        <dc:type
           rdf:resource="http://purl.org/dc/dcmitype/StillImage" />
        <dc:title></dc:title>
      </cc:Work>
    </rdf:RDF>
  </metadata>
  <g
     inkscape:label="Layer 1"
     inkscape:groupmode="layer"
     id="layer1">
    <path
       inkscape:connector-curvature="0"
       style="opacity:1;fill:#ebc967;fill-opacity:1;stroke:none;stroke-width:3.13851976;stroke-miterlimit:4;stroke-dasharray:none;stroke-opacity:1;"
       d="m 727.49066,14.37347 c 0.7111,1.7306 1.58182,3.5014 2.26367,5.2247 3.3914,8.571 6.42097,17.0519 9.09375,25.4433 2.57115,8.0723 4.77347,16.0529 6.6875,23.9609 a 323.2488,80.812212 0 0 1 76.95898,52.1954 323.2488,80.812212 0 0 1 -323.24804,80.8125 323.2488,80.812212 0 0 1 -323.24805,-80.8125 323.2488,80.812212 0 0 1 75.31641,-51.8321 323.2488,80.812212 0 0 1 1.79297,-0.4843 c 1.31312,-5.855 2.67165,-11.7338 4.35937,-17.793 2.04916,-7.3569 4.42148,-14.8917 7.23242,-22.6641 1.40547,-3.8862 2.91959,-7.8321 4.5586,-11.8457 0.29063,-0.7117 0.64289,-1.4559 0.9414,-2.1719 a 484.87317,121.21831 0 0 0 -0.15429,0.018 484.87317,121.21831 0 0 0 -255.671881,106.7735 484.87317,121.21831 0 0 0 484.873051,121.2187 484.87317,121.21831 0 0 0 484.87304,-121.2187 484.87317,121.21831 0 0 0 -255.96289,-106.7442 484.87317,121.21831 0 0 0 -0.66601,-0.08 z"
       id="circle1002"
       inkscape:export-xdpi="96"
       inkscape:export-ydpi="96"
       transform="matrix(0.19393093,0,0,0.19393093,11.28185,121.66568)" />
  </g>
</svg>
